<?xml version="1.0" encoding="UTF-8"?>
<svg version="1.1" xmlns="http://www.w3.org/2000/svg" width="549" height="660">
<path d="M0 0 C9.02273937 9.02273937 13.05728622 19.04645122 13.25 31.5625 C13.10427176 45.93660375 8.43368779 57.21150242 -1.1875 67.8125 C-10.13701337 76.23245637 -21.75925381 81.3907313 -34.07421875 81.9453125 C-42.56161364 81.58324045 -50.70806295 80.11468036 -57.44140625 74.703125 C-59.22354129 73.60689517 -59.22354129 73.60689517 -61.62109375 73.96875 C-64.53420456 74.92648506 -66.28593773 76.1572606 -68.6875 78.0625 C-74.17551505 82.19904468 -79.89721499 85.8381607 -85.75 89.4375 C-86.62398438 89.97536133 -87.49796875 90.51322266 -88.3984375 91.06738281 C-93.5750625 94.23971485 -98.77610043 97.37029936 -103.98413086 100.49072266 C-125.62464295 113.47263207 -142.73356697 128.20129037 -149.125 153.52734375 C-150.57761751 160.51806552 -151.41236294 167.39437762 -151.75852966 174.51350403 C-151.79955604 175.33243851 -151.84058242 176.151373 -151.88285202 176.99512368 C-152.32619791 186.6525742 -152.32010598 196.30591124 -152.30102539 205.97143555 C-152.30074248 208.013621 -152.30090328 210.05580655 -152.3014679 212.09799194 C-152.30175181 217.57810614 -152.29592137 223.05819791 -152.28889394 228.53830695 C-152.28259219 234.28911201 -152.28205125 240.03991773 -152.28086853 245.79072571 C-152.27777516 256.65217501 -152.26958896 267.51361411 -152.25951904 278.37505895 C-152.24829558 290.75252992 -152.24283183 303.13000141 -152.23782361 315.50747621 C-152.22740443 340.94248977 -152.20984406 366.37749431 -152.1875 391.8125 C-150.59639404 390.71276855 -150.59639404 390.71276855 -148.97314453 389.59082031 C-147.54724359 388.60735942 -146.12129714 387.62396452 -144.6953125 386.640625 C-144.00026611 386.15996582 -143.30521973 385.67930664 -142.58911133 385.18408203 C-127.94190981 375.0913375 -113.22209567 366.3122873 -96.4765625 360.09765625 C-92.48581002 358.53832422 -88.65219662 356.71702394 -84.78662109 354.87304688 C-78.38738984 351.8516675 -71.88608389 349.08289344 -65.375 346.3125 C-54.41908039 341.64921497 -43.5113574 336.88589077 -32.625 332.0625 C-23.15632915 327.86825633 -13.68157992 323.70796241 -4.11547852 319.73950195 C3.97082623 316.3666389 11.95193716 312.75730652 19.94873047 309.17871094 C27.59703404 305.76664213 35.28233515 302.49907335 43.06640625 299.41015625 C46.13579242 298.15261819 49.08438314 296.70446849 52.04663086 295.21264648 C52.94095322 294.76300034 53.83527557 294.31335419 54.75669861 293.8500824 C55.43511307 293.50768021 56.11352753 293.16527802 56.8125 292.8125 C56.81304477 291.73759056 56.81358953 290.66268112 56.81415081 289.55519867 C56.8285472 263.39844407 56.87156793 237.24185587 56.94459057 211.08519745 C56.97924138 198.43601046 57.00459623 185.78693246 57.00805664 173.13769531 C57.01109639 162.1124167 57.03158851 151.08733218 57.07302457 140.06212854 C57.09435502 134.22450157 57.10695477 128.38715055 57.09865379 122.54948425 C57.0911142 117.05332382 57.10693348 111.55772256 57.14056015 106.06166458 C57.1487944 104.04611992 57.14854224 102.03051967 57.13909721 100.01498032 C57.12745957 97.2583131 57.14661717 94.50347375 57.17326355 91.74694824 C57.16259029 90.95315183 57.15191703 90.15935542 57.14092034 89.34150457 C57.24759399 83.40844009 59.12258785 79.43938043 62.8125 74.8125 C65.53125 72.3515625 65.53125 72.3515625 68.3125 70.4375 C69.2303125 69.79039062 70.148125 69.14328125 71.09375 68.4765625 C76.06966054 65.43096208 79.92856315 64.18207819 85.8125 64.8125 C88.56579021 66.60812405 90.33877461 67.86504922 91.8125 70.8125 C93.389336 82.32789956 92.96789161 94.11575566 92.97363281 105.70800781 C92.97826917 107.90219199 92.98329491 110.09637538 92.98867798 112.29055786 C93.00171595 118.21582291 93.00822874 124.14107667 93.01268864 130.0663538 C93.01563031 133.77231304 93.01973689 137.47826927 93.02419281 141.18422699 C93.03783837 152.79250296 93.0475222 164.40077195 93.0513947 176.00905538 C93.05205784 177.98553976 93.05205784 177.98553976 93.05273438 180.00195312 C93.0529558 180.66213852 93.05317723 181.32232392 93.05340537 182.00251493 C93.05735971 192.71714054 93.07484288 203.43169842 93.0980939 214.14629784 C93.1218309 225.17454725 93.13401276 236.20276092 93.13543582 247.23103595 C93.13648296 253.41219431 93.14237288 259.59325663 93.16025543 265.77439117 C93.17673563 271.58245237 93.1788918 277.39034523 93.17011642 283.19842148 C93.16934632 285.32645748 93.17368522 287.45450255 93.18357468 289.58251572 C93.19630613 292.49313743 93.19041098 295.40316372 93.17999268 298.31378174 C93.18804908 299.15027103 93.19610548 299.98676032 93.20440602 300.84859776 C93.14940734 307.44344579 92.31176427 314.24381172 87.5625 319.125 C84.34667785 321.09834541 81.14345409 323.04092469 77.8125 324.8125 C77.10262939 325.19059814 76.39275879 325.56869629 75.66137695 325.95825195 C67.12909964 330.35896216 58.22249037 333.9082333 49.31835938 337.47460938 C43.67294738 339.74568149 38.15260196 342.08103307 32.73828125 344.86328125 C28.80941276 346.87673333 24.90248781 348.60745856 20.765625 350.1484375 C12.73177077 353.14739261 4.96955197 356.70485094 -2.83258057 360.25308228 C-7.28330534 362.27675995 -11.73975824 364.28776514 -16.1953125 366.30078125 C-17.06964935 366.69619614 -17.94398621 367.09161102 -18.84481812 367.49900818 C-29.58842399 372.35546856 -40.3773847 377.10602134 -51.1875 381.8125 C-51.79076111 382.07524719 -52.39402222 382.33799438 -53.01556396 382.60870361 C-57.67568876 384.63809142 -62.33739841 386.66380988 -67 388.6875 C-67.62561829 388.95922028 -68.25123657 389.23094055 -68.89581299 389.51089478 C-75.11382526 392.21012553 -81.33896445 394.88616636 -87.6015625 397.48046875 C-102.81947052 403.79461778 -116.99748238 410.86424224 -130.1875 420.8125 C-160.91937041 443.81994402 -160.91937041 443.81994402 -174.5234375 442.46875 C-181.44489292 441.22908634 -187.74756379 438.54496657 -194.1875 435.8125 C-195.03505859 435.45526855 -195.88261719 435.09803711 -196.75585938 434.72998047 C-201.28968706 432.81352724 -205.81297061 430.8740877 -210.328125 428.9140625 C-214.09878084 427.27760365 -217.88424589 425.68453542 -221.6875 424.125 C-225.58479728 422.51585339 -229.40751341 420.79087355 -233.22265625 418.99609375 C-239.77399812 415.96083903 -246.41875114 413.23362883 -253.125 410.5625 C-261.80708487 407.07176485 -270.38530469 403.43569488 -278.875 399.5 C-285.46191252 396.44811468 -292.03657865 393.65376467 -298.86865234 391.20532227 C-307.41429757 388.08737459 -315.66363564 384.2533696 -323.97265625 380.5625 C-334.42022503 375.9241328 -344.91601088 371.37899466 -355.625 367.375 C-361.19838861 365.27611574 -366.58745414 362.85115201 -372 360.375 C-378.71265206 357.30594552 -385.44221342 354.5004272 -392.37890625 351.98291016 C-399.79875502 349.26993407 -406.98714847 346.05567374 -414.1875 342.8125 C-415.25613281 342.33425781 -416.32476562 341.85601563 -417.42578125 341.36328125 C-419.26015849 340.53669448 -421.09130543 339.7028717 -422.91796875 338.859375 C-424.80960279 337.98681403 -426.71568282 337.14565659 -428.625 336.3125 C-433.28114078 333.58695418 -435.53588322 329.83703568 -437.1875 324.8125 C-437.48944927 322.16345936 -437.69655836 319.6045406 -437.8081665 316.94807434 C-437.84587292 316.16391484 -437.88357934 315.37975534 -437.92242837 314.57183343 C-438.36644886 304.26635863 -438.2980879 293.95579283 -438.25683594 283.64331055 C-438.25159017 281.37293588 -438.24676532 279.10256022 -438.24232483 276.83218384 C-438.22880374 270.72358109 -438.20836305 264.61502184 -438.18575954 258.5064466 C-438.17182711 254.68608664 -438.15921378 250.86572451 -438.1470108 247.04535866 C-438.11291445 236.44262995 -438.07713968 225.83991152 -438.03391647 215.237216 C-438.03116843 214.56258778 -438.02842038 213.88795956 -438.02558906 213.19288807 C-438.02001457 211.82575087 -438.01443979 210.45861366 -438.00886473 209.09147646 C-438.0061005 208.41297136 -438.00333627 207.73446626 -438.00048828 207.03540039 C-437.9977191 206.35605896 -437.99494991 205.67671753 -437.99209681 204.97678999 C-437.94741668 193.92680292 -437.91644287 182.87682267 -437.89128849 171.82677557 C-437.86520204 160.45029292 -437.82771913 149.07390378 -437.77946877 137.69748908 C-437.75266684 131.32206405 -437.73066784 124.94670879 -437.72045135 118.57123375 C-437.71053555 112.58987978 -437.68651312 106.60874921 -437.65151787 100.627491 C-437.64110887 98.43167887 -437.63581003 96.2358358 -437.63595009 94.03999901 C-437.63536034 91.04717877 -437.61649303 88.0550165 -437.59295654 85.06230164 C-437.597122 84.19033494 -437.60128746 83.31836825 -437.60557914 82.41997832 C-437.54692502 77.74127471 -437.24389182 74.60397402 -434.1875 70.8125 C-425.56263986 66.50006993 -413.99508667 70.96341214 -405.44921875 73.71875 C-404.37285156 74.0796875 -403.29648437 74.440625 -402.1875 74.8125 C-402.2928582 73.92009361 -402.2928582 73.92009361 -402.40034485 73.00965881 C-403.10457898 66.61196889 -403.34791876 60.30433705 -403.35546875 53.87109375 C-403.36046135 52.35951439 -403.36046135 52.35951439 -403.36555481 50.81739807 C-403.37058335 48.70224459 -403.37296441 46.58708328 -403.37280273 44.47192383 C-403.37499643 41.25523787 -403.39321547 38.03889146 -403.41210938 34.82226562 C-403.41504282 32.75520949 -403.41702794 30.68815175 -403.41796875 28.62109375 C-403.42515427 27.67084824 -403.43233978 26.72060272 -403.43974304 25.74156189 C-403.39161946 11.53864776 -403.39161946 11.53864776 -398.8125 5.875 C-393.33091715 1.56804205 -389.03264654 1.13809525 -382.1875 1.8125 C-378.74266925 2.60905045 -375.49261607 3.75283511 -372.1875 5 C-371.3625 5.29197266 -370.5375 5.58394531 -369.6875 5.88476562 C-364.53881326 7.75518698 -359.72352723 10.01431258 -354.85351562 12.51147461 C-349.83645167 14.9598202 -344.62371216 16.94188439 -339.4375 19 C-330.69151068 22.50952187 -322.04879574 26.15900134 -313.5 30.125 C-306.79191713 33.2349694 -300.08741497 36.06963753 -293.13061523 38.5690918 C-287.98522933 40.44454908 -283.03417317 42.64454304 -278.0625 44.9375 C-266.94947294 50.05135163 -255.59114616 54.52075605 -244.21875 59.015625 C-241.87448184 59.94661297 -239.53070753 60.87884574 -237.1875 61.8125 C-236.13780029 62.22894775 -235.08810059 62.64539551 -234.0065918 63.07446289 C-227.08094089 65.88104171 -220.53340732 69.12857267 -214 72.75 C-213.08025391 73.24951172 -212.16050781 73.74902344 -211.21289062 74.26367188 C-202.64910984 78.96737854 -194.54870791 83.85616388 -187.625 90.8125 C-187.07344238 91.36647461 -186.52188477 91.92044922 -185.95361328 92.49121094 C-178.69609213 100.07369572 -170.1875 111.94620976 -170.1875 122.8125 C-169.5275 122.8125 -168.8675 122.8125 -168.1875 122.8125 C-167.878125 121.636875 -167.878125 121.636875 -167.5625 120.4375 C-157.46554483 93.81825456 -130.11456435 81.94029135 -106.80151367 69.23901367 C-102.90160022 67.11076166 -99.01072108 64.96654103 -95.125 62.8125 C-94.35349609 62.38533691 -93.58199219 61.95817383 -92.78710938 61.51806641 C-87.76051596 58.72257869 -82.80831277 55.83460803 -77.9375 52.7734375 C-76.1875 51.8125 -76.1875 51.8125 -74.1875 51.8125 C-74.661875 50.884375 -75.13625 49.95625 -75.625 49 C-79.19568283 40.62327961 -79.15162374 30.30635337 -76.109375 21.796875 C-74.87027374 18.76630204 -73.55536495 15.78686055 -72.1875 12.8125 C-71.4759375 11.1728125 -71.4759375 11.1728125 -70.75 9.5 C-65.559472 0.57229185 -58.19579786 -3.63723351 -49.1875 -8.1875 C-48.43597656 -8.57421875 -47.68445313 -8.9609375 -46.91015625 -9.359375 C-30.34877855 -16.31187415 -13.63931055 -9.36031116 0 0 Z M-368.1875 45.8125 C-368.25602041 74.78146632 -368.30907161 103.7504247 -368.34069599 132.71945594 C-368.34444786 136.14386269 -368.34833085 139.56826927 -368.35229492 142.99267578 C-368.35308185 143.67437884 -368.35386878 144.3560819 -368.35467956 145.05844262 C-368.36771357 156.07902177 -368.39135629 167.09955369 -368.41895839 178.12010488 C-368.44706852 189.43836628 -368.46346371 200.7565928 -368.46976548 212.07489133 C-368.47367073 218.42793228 -368.48282637 224.78086634 -368.50469017 231.13387299 C-368.52512033 237.11904739 -368.53132057 243.10407131 -368.52682304 249.08927727 C-368.52764532 251.28054816 -368.53357183 253.47182432 -368.54511642 255.66306496 C-369.28833163 274.99119644 -369.28833163 274.99119644 -361.8671875 292.234375 C-355.2632722 298.43898379 -347.18616558 301.83055324 -338.83203125 305.0078125 C-332.76161513 307.3293792 -326.79407188 309.89785693 -320.8125 312.4375 C-319.70704834 312.90510742 -318.60159668 313.37271484 -317.46264648 313.85449219 C-312.83006157 315.81866625 -308.20457935 317.79252809 -303.61328125 319.8515625 C-298.37063188 322.19733334 -293.05882693 324.37175263 -287.75 326.5625 C-278.19338655 330.52465905 -268.71702073 334.6341362 -259.28125 338.87451172 C-255.75707914 340.45332054 -252.2233926 342.01015691 -248.6875 343.5625 C-248.01984619 343.85753418 -247.35219238 344.15256836 -246.66430664 344.45654297 C-243.18852633 345.98181309 -239.70140009 347.35823555 -236.125 348.625 C-220.92501292 354.63370511 -206.65206929 367.2908555 -194.95703125 378.44921875 C-193.16371244 380.11765108 -193.16371244 380.11765108 -190.1875 379.8125 C-190.11731388 351.51752544 -190.0644648 323.22256398 -190.03206348 294.9275198 C-190.01661686 281.78864564 -189.99556954 268.64982569 -189.96118164 255.51098633 C-189.93121175 244.05467204 -189.91190899 232.59839701 -189.90523452 221.1420446 C-189.90133512 215.08009958 -189.89221703 209.01826687 -189.87030983 202.95635796 C-189.8498247 197.24120759 -189.84369038 191.52621494 -189.84817696 185.81103134 C-189.84735711 183.72261127 -189.84146363 181.63418548 -189.82988358 179.54579735 C-189.71720648 158.16167168 -192.27624879 138.01617953 -206.1875 120.8125 C-206.78175781 120.04421875 -207.37601563 119.2759375 -207.98828125 118.484375 C-218.31183978 105.91656462 -232.43400253 100.93222228 -247.10107422 95.06494141 C-251.83195518 93.14519616 -256.50712025 91.10151159 -261.1875 89.0625 C-267.11341603 86.49577708 -273.05059752 84.06663447 -279.125 81.875 C-285.64139155 79.52279069 -291.90160037 76.72118936 -298.1875 73.8125 C-307.06103017 69.70824501 -315.98941603 66.11105449 -325.1875 62.8125 C-332.71304904 60.05966609 -339.86201172 57.03412949 -346.98828125 53.37109375 C-350.68654595 51.56937505 -354.43601257 49.97548699 -358.25 48.4375 C-358.89372559 48.17461182 -359.53745117 47.91172363 -360.20068359 47.64086914 C-363.02918928 46.5202328 -365.11460098 45.8125 -368.1875 45.8125 Z " fill="#0167FE" transform="translate(447.1875,206.1875)"/>
<path d="M0 0 C0.73992187 0.65871094 1.47984375 1.31742188 2.2421875 1.99609375 C2.87898438 2.56199219 3.51578125 3.12789062 4.171875 3.7109375 C18.0810567 16.84738688 24.33422345 34.25430995 25.23828125 53.06640625 C25.25000175 64.85723064 23.09811917 75.17471486 18.2421875 85.99609375 C17.94183594 86.80949219 17.64148438 87.62289062 17.33203125 88.4609375 C11.64167183 102.30671083 -1.81206584 113.30063193 -14.7578125 119.99609375 C-15.77681641 120.599375 -15.77681641 120.599375 -16.81640625 121.21484375 C-36.25630312 132.25168842 -60.07390215 129.07078807 -80.7578125 123.99609375 C-81.00015625 124.57488281 -81.2425 125.15367187 -81.4921875 125.75 C-82.99579597 128.41844095 -84.68831004 129.93283087 -87.0078125 131.93359375 C-90.7390681 135.20046732 -94.40017066 138.51655835 -98.00952148 141.91772461 C-111.59877179 154.70081742 -111.59877179 154.70081742 -115.7578125 156.99609375 C-116.7478125 156.66609375 -117.7378125 156.33609375 -118.7578125 155.99609375 C-115.61664055 145.26244085 -111.90577598 134.82633947 -107.79321289 124.42382812 C-105.66087812 118.91222706 -103.82970955 113.94394086 -103.7578125 107.99609375 C-104.87916359 105.52511499 -104.87916359 105.52511499 -106.8203125 103.62109375 C-120.1483691 88.06727819 -124.95142415 68.87345772 -123.41625977 48.72412109 C-121.48250117 28.56027021 -111.29095625 11.54889583 -95.9921875 -1.52734375 C-69.01665303 -23.10446955 -26.04127303 -22.00612369 0 0 Z " fill="#0097FE" transform="translate(404.7578125,25.00390625)"/>
<path d="M0 0 C10.679458 9.20585836 17.60509219 20.53098694 19.3671875 34.64453125 C20.02553813 49.88788036 16.06358717 62.72083409 6.4453125 74.54296875 C4.62294702 77.03070094 3.9093012 78.19627994 3.51953125 81.171875 C4.12400115 83.07124399 4.12400115 83.07124399 5.2578125 84.90234375 C5.6609668 85.61430908 6.06412109 86.32627441 6.47949219 87.05981445 C7.14899902 88.19809692 7.14899902 88.19809692 7.83203125 89.359375 C8.28481445 90.15239014 8.73759766 90.94540527 9.20410156 91.76245117 C11.49614976 95.75927951 13.84256888 99.72302893 16.203125 103.6796875 C17.05879919 105.11446083 17.91427204 106.54935426 18.76953125 107.984375 C19.18420654 108.67869629 19.59888184 109.37301758 20.02612305 110.08837891 C23.66280936 116.25262407 26.70289455 122.58827297 29.51953125 129.171875 C26.95046297 130.19950231 25.1723101 130.41968316 22.56445312 129.4296875 C20.25208454 128.24729776 18.0093933 126.98654651 15.76953125 125.671875 C14.96257812 125.20628174 14.155625 124.74068848 13.32421875 124.26098633 C3.54841007 118.53766953 -3.23672102 112.72853224 -9.92578125 103.55078125 C-10.33231934 103.0182373 -10.73885742 102.48569336 -11.15771484 101.93701172 C-12.12052086 100.65220414 -13.03417191 99.33011818 -13.91650391 97.98876953 C-16.33816982 94.66420909 -18.0427951 92.47622386 -22.17333984 91.60180664 C-25.35018446 91.52715157 -28.4370866 91.68201758 -31.60546875 91.921875 C-47.83334997 92.52225745 -59.96680542 89.28620302 -72.23046875 77.921875 C-78.5520854 71.14437254 -83.26952059 63.18574056 -85.48046875 54.171875 C-85.66222656 53.44871094 -85.84398438 52.72554687 -86.03125 51.98046875 C-87.86951899 40.48729133 -87.25170704 28.83208922 -82.48046875 18.171875 C-82.08214844 17.10646484 -82.08214844 17.10646484 -81.67578125 16.01953125 C-77.27408856 5.43450834 -66.70967231 -2.40055928 -56.48046875 -6.828125 C-37.09691916 -13.42184529 -16.85595144 -12.42296894 0 0 Z " fill="#0082FE" transform="translate(210.48046875,77.828125)"/>
<path d="M0 0 C7.35604767 4.37152328 12.74056632 11.13786547 15.125 19.375 C16.17133028 28.16417439 14.83874756 35.37537507 10.75 43.25 C5.19337508 49.85787828 -1.74077491 54.42658795 -10.41796875 55.28125 C-20.15482747 55.57742821 -27.56173612 53.86336632 -34.76953125 47.1015625 C-40.47948787 40.40884646 -43.00003391 32.53898937 -42.91015625 23.859375 C-41.976582 16.180989 -38.35181512 8.16004174 -32.5625 3 C-23.14561289 -3.27234932 -10.43997941 -4.67889321 0 0 Z " fill="#0082FE" transform="translate(278.5625,204)"/>
<path d="M0 0 C0 3 0 3 -1.828125 5.19140625 C-2.62734375 5.97386719 -3.4265625 6.75632813 -4.25 7.5625 C-5.03890625 8.34753906 -5.8278125 9.13257813 -6.640625 9.94140625 C-8.7267613 11.76159471 -10.47089399 12.92687015 -13 14 C-10.27076097 7.54907138 -5.83503593 3.52816126 0 0 Z " fill="#1789FB" transform="translate(390,202)"/>
<path d="M0 0 C0 0.66 0 1.32 0 2 C-1.32 2 -2.64 2 -4 2 C-4.226875 2.598125 -4.45375 3.19625 -4.6875 3.8125 C-6.33811133 6.56351888 -8.1972081 7.52484637 -11 9 C-10.32353508 6.2941403 -9.64282657 4.48483064 -7.37890625 2.77734375 C-2.59072581 0 -2.59072581 0 0 0 Z " fill="#1185FB" transform="translate(57,208)"/>
<path d="M0 0 C3.9492568 0.55105909 7.34920174 1.38935371 11 3 C10.34 3.66 9.68 4.32 9 5 C8.278125 4.67 7.55625 4.34 6.8125 4 C3.98302573 2.99396471 1.97104534 2.83022598 -1 3 C-0.67 2.01 -0.34 1.02 0 0 Z " fill="#0481FC" transform="translate(78,250)"/>
</svg>
